<svg width="1500" height="244" xmlns="http://www.w3.org/2000/svg" xmlns:xlink="http://www.w3.org/1999/xlink" xml:space="preserve" overflow="hidden"><defs><linearGradient x1="2439.57" y1="660.924" x2="3924.43" y2="660.924" gradientUnits="userSpaceOnUse" spreadMethod="reflect" id="fill0"><stop offset="0" stop-color="#B67DED"/><stop offset="0.0104167" stop-color="#B57CEC"/><stop offset="0.0208333" stop-color="#B57CEC"/><stop offset="0.03125" stop-color="#B57CEC"/><stop offset="0.0416667" stop-color="#B57CEC"/><stop offset="0.0520833" stop-color="#B57CEC"/><stop offset="0.0625" stop-color="#B57CEC"/><stop offset="0.0729167" stop-color="#B57CEC"/><stop offset="0.0833333" stop-color="#B57CEC"/><stop offset="0.09375" stop-color="#B47CEB"/><stop offset="0.104167" stop-color="#B47CEB"/><stop offset="0.114583" stop-color="#B47BEB"/><stop offset="0.125" stop-color="#B47BEB"/><stop offset="0.135417" stop-color="#B37BEA"/><stop offset="0.145833" stop-color="#B37BEA"/><stop offset="0.15625" stop-color="#B37AEA"/><stop offset="0.166667" stop-color="#B37AE9"/><stop offset="0.177083" stop-color="#B27AE9"/><stop offset="0.1875" stop-color="#B27AE8"/><stop offset="0.197917" stop-color="#B179E8"/><stop offset="0.208333" stop-color="#B179E7"/><stop offset="0.21875" stop-color="#B179E7"/><stop offset="0.229167" stop-color="#B078E6"/><stop offset="0.239583" stop-color="#B078E6"/><stop offset="0.25" stop-color="#AF77E5"/><stop offset="0.260417" stop-color="#AF77E5"/><stop offset="0.270833" stop-color="#AE77E4"/><stop offset="0.28125" stop-color="#AE76E4"/><stop offset="0.291667" stop-color="#AD76E3"/><stop offset="0.302083" stop-color="#AC75E2"/><stop offset="0.3125" stop-color="#AC75E2"/><stop offset="0.322917" stop-color="#AB74E1"/><stop offset="0.333333" stop-color="#AB74E0"/><stop offset="0.34375" stop-color="#AA73DF"/><stop offset="0.354167" stop-color="#A973DF"/><stop offset="0.364583" stop-color="#A972DE"/><stop offset="0.375" stop-color="#A872DD"/><stop offset="0.385417" stop-color="#A771DC"/><stop offset="0.395833" stop-color="#A770DB"/><stop offset="0.40625" stop-color="#A670DB"/><stop offset="0.416667" stop-color="#A56FDA"/><stop offset="0.427083" stop-color="#A46FD9"/><stop offset="0.4375" stop-color="#A36ED8"/><stop offset="0.447917" stop-color="#A36DD7"/><stop offset="0.458333" stop-color="#A26DD6"/><stop offset="0.46875" stop-color="#A16CD5"/><stop offset="0.479167" stop-color="#A06BD4"/><stop offset="0.489583" stop-color="#9F6AD3"/><stop offset="0.5" stop-color="#9E6AD2"/><stop offset="0.510417" stop-color="#9D69D1"/><stop offset="0.520833" stop-color="#9C68D0"/><stop offset="0.53125" stop-color="#9C67CF"/><stop offset="0.541667" stop-color="#9B67CE"/><stop offset="0.552083" stop-color="#9A66CD"/><stop offset="0.5625" stop-color="#9965CC"/><stop offset="0.572917" stop-color="#9864CA"/><stop offset="0.583333" stop-color="#9763C9"/><stop offset="0.59375" stop-color="#9663C8"/><stop offset="0.604167" stop-color="#9462C7"/><stop offset="0.614583" stop-color="#9361C6"/><stop offset="0.625" stop-color="#9260C4"/><stop offset="0.635417" stop-color="#915FC3"/><stop offset="0.645833" stop-color="#905EC2"/><stop offset="0.65625" stop-color="#8F5DC0"/><stop offset="0.666667" stop-color="#8E5CBF"/><stop offset="0.677083" stop-color="#8D5BBE"/><stop offset="0.6875" stop-color="#8B5ABC"/><stop offset="0.697917" stop-color="#8A59BB"/><stop offset="0.708333" stop-color="#8958BA"/><stop offset="0.71875" stop-color="#8857B8"/><stop offset="0.729167" stop-color="#8656B7"/><stop offset="0.739583" stop-color="#8555B5"/><stop offset="0.75" stop-color="#8454B4"/><stop offset="0.760417" stop-color="#8353B2"/><stop offset="0.770833" stop-color="#8152B1"/><stop offset="0.78125" stop-color="#8051AF"/><stop offset="0.791667" stop-color="#7F50AE"/><stop offset="0.802083" stop-color="#7D4FAC"/><stop offset="0.8125" stop-color="#7C4EAB"/><stop offset="0.822917" stop-color="#7B4DA9"/><stop offset="0.833333" stop-color="#794BA8"/><stop offset="0.84375" stop-color="#784AA6"/><stop offset="0.854167" stop-color="#7649A4"/><stop offset="0.864583" stop-color="#7548A3"/><stop offset="0.875" stop-color="#7347A1"/><stop offset="0.885417" stop-color="#72469F"/><stop offset="0.895833" stop-color="#70449E"/><stop offset="0.90625" stop-color="#6F439C"/><stop offset="0.916667" stop-color="#6D429A"/><stop offset="0.927083" stop-color="#6C4198"/><stop offset="0.9375" stop-color="#6A3F97"/><stop offset="0.947917" stop-color="#693E95"/><stop offset="0.958333" stop-color="#673D93"/><stop offset="0.96875" stop-color="#653B91"/><stop offset="0.979167" stop-color="#643A8F"/><stop offset="0.989583" stop-color="#62398D"/><stop offset="1" stop-color="#61388C"/></linearGradient><linearGradient x1="2439.57" y1="660.924" x2="3924.43" y2="660.924" gradientUnits="userSpaceOnUse" spreadMethod="reflect" id="fill1"><stop offset="0" stop-color="#B67DED"/><stop offset="0.0104167" stop-color="#B57CEC"/><stop offset="0.0208333" stop-color="#B57CEC"/><stop offset="0.03125" stop-color="#B57CEC"/><stop offset="0.0416667" stop-color="#B57CEC"/><stop offset="0.0520833" stop-color="#B57CEC"/><stop offset="0.0625" stop-color="#B57CEC"/><stop offset="0.0729167" stop-color="#B57CEC"/><stop offset="0.0833333" stop-color="#B57CEC"/><stop offset="0.09375" stop-color="#B47CEB"/><stop offset="0.104167" stop-color="#B47CEB"/><stop offset="0.114583" stop-color="#B47BEB"/><stop offset="0.125" stop-color="#B47BEB"/><stop offset="0.135417" stop-color="#B37BEA"/><stop offset="0.145833" stop-color="#B37BEA"/><stop offset="0.15625" stop-color="#B37AEA"/><stop offset="0.166667" stop-color="#B37AE9"/><stop offset="0.177083" stop-color="#B27AE9"/><stop offset="0.1875" stop-color="#B27AE8"/><stop offset="0.197917" stop-color="#B179E8"/><stop offset="0.208333" stop-color="#B179E7"/><stop offset="0.21875" stop-color="#B179E7"/><stop offset="0.229167" stop-color="#B078E6"/><stop offset="0.239583" stop-color="#B078E6"/><stop offset="0.25" stop-color="#AF77E5"/><stop offset="0.260417" stop-color="#AF77E5"/><stop offset="0.270833" stop-color="#AE77E4"/><stop offset="0.28125" stop-color="#AE76E4"/><stop offset="0.291667" stop-color="#AD76E3"/><stop offset="0.302083" stop-color="#AC75E2"/><stop offset="0.3125" stop-color="#AC75E2"/><stop offset="0.322917" stop-color="#AB74E1"/><stop offset="0.333333" stop-color="#AB74E0"/><stop offset="0.34375" stop-color="#AA73DF"/><stop offset="0.354167" stop-color="#A973DF"/><stop offset="0.364583" stop-color="#A972DE"/><stop offset="0.375" stop-color="#A872DD"/><stop offset="0.385417" stop-color="#A771DC"/><stop offset="0.395833" stop-color="#A770DB"/><stop offset="0.40625" stop-color="#A670DB"/><stop offset="0.416667" stop-color="#A56FDA"/><stop offset="0.427083" stop-color="#A46FD9"/><stop offset="0.4375" stop-color="#A36ED8"/><stop offset="0.447917" stop-color="#A36DD7"/><stop offset="0.458333" stop-color="#A26DD6"/><stop offset="0.46875" stop-color="#A16CD5"/><stop offset="0.479167" stop-color="#A06BD4"/><stop offset="0.489583" stop-color="#9F6AD3"/><stop offset="0.5" stop-color="#9E6AD2"/><stop offset="0.510417" stop-color="#9D69D1"/><stop offset="0.520833" stop-color="#9C68D0"/><stop offset="0.53125" stop-color="#9C67CF"/><stop offset="0.541667" stop-color="#9B67CE"/><stop offset="0.552083" stop-color="#9A66CD"/><stop offset="0.5625" stop-color="#9965CC"/><stop offset="0.572917" stop-color="#9864CA"/><stop offset="0.583333" stop-color="#9763C9"/><stop offset="0.59375" stop-color="#9663C8"/><stop offset="0.604167" stop-color="#9462C7"/><stop offset="0.614583" stop-color="#9361C6"/><stop offset="0.625" stop-color="#9260C4"/><stop offset="0.635417" stop-color="#915FC3"/><stop offset="0.645833" stop-color="#905EC2"/><stop offset="0.65625" stop-color="#8F5DC0"/><stop offset="0.666667" stop-color="#8E5CBF"/><stop offset="0.677083" stop-color="#8D5BBE"/><stop offset="0.6875" stop-color="#8B5ABC"/><stop offset="0.697917" stop-color="#8A59BB"/><stop offset="0.708333" stop-color="#8958BA"/><stop offset="0.71875" stop-color="#8857B8"/><stop offset="0.729167" stop-color="#8656B7"/><stop offset="0.739583" stop-color="#8555B5"/><stop offset="0.75" stop-color="#8454B4"/><stop offset="0.760417" stop-color="#8353B2"/><stop offset="0.770833" stop-color="#8152B1"/><stop offset="0.78125" stop-color="#8051AF"/><stop offset="0.791667" stop-color="#7F50AE"/><stop offset="0.802083" stop-color="#7D4FAC"/><stop offset="0.8125" stop-color="#7C4EAB"/><stop offset="0.822917" stop-color="#7B4DA9"/><stop offset="0.833333" stop-color="#794BA8"/><stop offset="0.84375" stop-color="#784AA6"/><stop offset="0.854167" stop-color="#7649A4"/><stop offset="0.864583" stop-color="#7548A3"/><stop offset="0.875" stop-color="#7347A1"/><stop offset="0.885417" stop-color="#72469F"/><stop offset="0.895833" stop-color="#70449E"/><stop offset="0.90625" stop-color="#6F439C"/><stop offset="0.916667" stop-color="#6D429A"/><stop offset="0.927083" stop-color="#6C4198"/><stop offset="0.9375" stop-color="#6A3F97"/><stop offset="0.947917" stop-color="#693E95"/><stop offset="0.958333" stop-color="#673D93"/><stop offset="0.96875" stop-color="#653B91"/><stop offset="0.979167" stop-color="#643A8F"/><stop offset="0.989583" stop-color="#62398D"/><stop offset="1" stop-color="#61388C"/></linearGradient><linearGradient x1="2439.57" y1="660.924" x2="3924.43" y2="660.924" gradientUnits="userSpaceOnUse" spreadMethod="reflect" id="fill2"><stop offset="0" stop-color="#B67DED"/><stop offset="0.0104167" stop-color="#B57CEC"/><stop offset="0.0208333" stop-color="#B57CEC"/><stop offset="0.03125" stop-color="#B57CEC"/><stop offset="0.0416667" stop-color="#B57CEC"/><stop offset="0.0520833" stop-color="#B57CEC"/><stop offset="0.0625" stop-color="#B57CEC"/><stop offset="0.0729167" stop-color="#B57CEC"/><stop offset="0.0833333" stop-color="#B57CEC"/><stop offset="0.09375" stop-color="#B47CEB"/><stop offset="0.104167" stop-color="#B47CEB"/><stop offset="0.114583" stop-color="#B47BEB"/><stop offset="0.125" stop-color="#B47BEB"/><stop offset="0.135417" stop-color="#B37BEA"/><stop offset="0.145833" stop-color="#B37BEA"/><stop offset="0.15625" stop-color="#B37AEA"/><stop offset="0.166667" stop-color="#B37AE9"/><stop offset="0.177083" stop-color="#B27AE9"/><stop offset="0.1875" stop-color="#B27AE8"/><stop offset="0.197917" stop-color="#B179E8"/><stop offset="0.208333" stop-color="#B179E7"/><stop offset="0.21875" stop-color="#B179E7"/><stop offset="0.229167" stop-color="#B078E6"/><stop offset="0.239583" stop-color="#B078E6"/><stop offset="0.25" stop-color="#AF77E5"/><stop offset="0.260417" stop-color="#AF77E5"/><stop offset="0.270833" stop-color="#AE77E4"/><stop offset="0.28125" stop-color="#AE76E4"/><stop offset="0.291667" stop-color="#AD76E3"/><stop offset="0.302083" stop-color="#AC75E2"/><stop offset="0.3125" stop-color="#AC75E2"/><stop offset="0.322917" stop-color="#AB74E1"/><stop offset="0.333333" stop-color="#AB74E0"/><stop offset="0.34375" stop-color="#AA73DF"/><stop offset="0.354167" stop-color="#A973DF"/><stop offset="0.364583" stop-color="#A972DE"/><stop offset="0.375" stop-color="#A872DD"/><stop offset="0.385417" stop-color="#A771DC"/><stop offset="0.395833" stop-color="#A770DB"/><stop offset="0.40625" stop-color="#A670DB"/><stop offset="0.416667" stop-color="#A56FDA"/><stop offset="0.427083" stop-color="#A46FD9"/><stop offset="0.4375" stop-color="#A36ED8"/><stop offset="0.447917" stop-color="#A36DD7"/><stop offset="0.458333" stop-color="#A26DD6"/><stop offset="0.46875" stop-color="#A16CD5"/><stop offset="0.479167" stop-color="#A06BD4"/><stop offset="0.489583" stop-color="#9F6AD3"/><stop offset="0.5" stop-color="#9E6AD2"/><stop offset="0.510417" stop-color="#9D69D1"/><stop offset="0.520833" stop-color="#9C68D0"/><stop offset="0.53125" stop-color="#9C67CF"/><stop offset="0.541667" stop-color="#9B67CE"/><stop offset="0.552083" stop-color="#9A66CD"/><stop offset="0.5625" stop-color="#9965CC"/><stop offset="0.572917" stop-color="#9864CA"/><stop offset="0.583333" stop-color="#9763C9"/><stop offset="0.59375" stop-color="#9663C8"/><stop offset="0.604167" stop-color="#9462C7"/><stop offset="0.614583" stop-color="#9361C6"/><stop offset="0.625" stop-color="#9260C4"/><stop offset="0.635417" stop-color="#915FC3"/><stop offset="0.645833" stop-color="#905EC2"/><stop offset="0.65625" stop-color="#8F5DC0"/><stop offset="0.666667" stop-color="#8E5CBF"/><stop offset="0.677083" stop-color="#8D5BBE"/><stop offset="0.6875" stop-color="#8B5ABC"/><stop offset="0.697917" stop-color="#8A59BB"/><stop offset="0.708333" stop-color="#8958BA"/><stop offset="0.71875" stop-color="#8857B8"/><stop offset="0.729167" stop-color="#8656B7"/><stop offset="0.739583" stop-color="#8555B5"/><stop offset="0.75" stop-color="#8454B4"/><stop offset="0.760417" stop-color="#8353B2"/><stop offset="0.770833" stop-color="#8152B1"/><stop offset="0.78125" stop-color="#8051AF"/><stop offset="0.791667" stop-color="#7F50AE"/><stop offset="0.802083" stop-color="#7D4FAC"/><stop offset="0.8125" stop-color="#7C4EAB"/><stop offset="0.822917" stop-color="#7B4DA9"/><stop offset="0.833333" stop-color="#794BA8"/><stop offset="0.84375" stop-color="#784AA6"/><stop offset="0.854167" stop-color="#7649A4"/><stop offset="0.864583" stop-color="#7548A3"/><stop offset="0.875" stop-color="#7347A1"/><stop offset="0.885417" stop-color="#72469F"/><stop offset="0.895833" stop-color="#70449E"/><stop offset="0.90625" stop-color="#6F439C"/><stop offset="0.916667" stop-color="#6D429A"/><stop offset="0.927083" stop-color="#6C4198"/><stop offset="0.9375" stop-color="#6A3F97"/><stop offset="0.947917" stop-color="#693E95"/><stop offset="0.958333" stop-color="#673D93"/><stop offset="0.96875" stop-color="#653B91"/><stop offset="0.979167" stop-color="#643A8F"/><stop offset="0.989583" stop-color="#62398D"/><stop offset="1" stop-color="#61388C"/></linearGradient><linearGradient x1="2439.57" y1="660.924" x2="3924.43" y2="660.924" gradientUnits="userSpaceOnUse" spreadMethod="reflect" id="fill3"><stop offset="0" stop-color="#B67DED"/><stop offset="0.0104167" stop-color="#B57CEC"/><stop offset="0.0208333" stop-color="#B57CEC"/><stop offset="0.03125" stop-color="#B57CEC"/><stop offset="0.0416667" stop-color="#B57CEC"/><stop offset="0.0520833" stop-color="#B57CEC"/><stop offset="0.0625" stop-color="#B57CEC"/><stop offset="0.0729167" stop-color="#B57CEC"/><stop offset="0.0833333" stop-color="#B57CEC"/><stop offset="0.09375" stop-color="#B47CEB"/><stop offset="0.104167" stop-color="#B47CEB"/><stop offset="0.114583" stop-color="#B47BEB"/><stop offset="0.125" stop-color="#B47BEB"/><stop offset="0.135417" stop-color="#B37BEA"/><stop offset="0.145833" stop-color="#B37BEA"/><stop offset="0.15625" stop-color="#B37AEA"/><stop offset="0.166667" stop-color="#B37AE9"/><stop offset="0.177083" stop-color="#B27AE9"/><stop offset="0.1875" stop-color="#B27AE8"/><stop offset="0.197917" stop-color="#B179E8"/><stop offset="0.208333" stop-color="#B179E7"/><stop offset="0.21875" stop-color="#B179E7"/><stop offset="0.229167" stop-color="#B078E6"/><stop offset="0.239583" stop-color="#B078E6"/><stop offset="0.25" stop-color="#AF77E5"/><stop offset="0.260417" stop-color="#AF77E5"/><stop offset="0.270833" stop-color="#AE77E4"/><stop offset="0.28125" stop-color="#AE76E4"/><stop offset="0.291667" stop-color="#AD76E3"/><stop offset="0.302083" stop-color="#AC75E2"/><stop offset="0.3125" stop-color="#AC75E2"/><stop offset="0.322917" stop-color="#AB74E1"/><stop offset="0.333333" stop-color="#AB74E0"/><stop offset="0.34375" stop-color="#AA73DF"/><stop offset="0.354167" stop-color="#A973DF"/><stop offset="0.364583" stop-color="#A972DE"/><stop offset="0.375" stop-color="#A872DD"/><stop offset="0.385417" stop-color="#A771DC"/><stop offset="0.395833" stop-color="#A770DB"/><stop offset="0.40625" stop-color="#A670DB"/><stop offset="0.416667" stop-color="#A56FDA"/><stop offset="0.427083" stop-color="#A46FD9"/><stop offset="0.4375" stop-color="#A36ED8"/><stop offset="0.447917" stop-color="#A36DD7"/><stop offset="0.458333" stop-color="#A26DD6"/><stop offset="0.46875" stop-color="#A16CD5"/><stop offset="0.479167" stop-color="#A06BD4"/><stop offset="0.489583" stop-color="#9F6AD3"/><stop offset="0.5" stop-color="#9E6AD2"/><stop offset="0.510417" stop-color="#9D69D1"/><stop offset="0.520833" stop-color="#9C68D0"/><stop offset="0.53125" stop-color="#9C67CF"/><stop offset="0.541667" stop-color="#9B67CE"/><stop offset="0.552083" stop-color="#9A66CD"/><stop offset="0.5625" stop-color="#9965CC"/><stop offset="0.572917" stop-color="#9864CA"/><stop offset="0.583333" stop-color="#9763C9"/><stop offset="0.59375" stop-color="#9663C8"/><stop offset="0.604167" stop-color="#9462C7"/><stop offset="0.614583" stop-color="#9361C6"/><stop offset="0.625" stop-color="#9260C4"/><stop offset="0.635417" stop-color="#915FC3"/><stop offset="0.645833" stop-color="#905EC2"/><stop offset="0.65625" stop-color="#8F5DC0"/><stop offset="0.666667" stop-color="#8E5CBF"/><stop offset="0.677083" stop-color="#8D5BBE"/><stop offset="0.6875" stop-color="#8B5ABC"/><stop offset="0.697917" stop-color="#8A59BB"/><stop offset="0.708333" stop-color="#8958BA"/><stop offset="0.71875" stop-color="#8857B8"/><stop offset="0.729167" stop-color="#8656B7"/><stop offset="0.739583" stop-color="#8555B5"/><stop offset="0.75" stop-color="#8454B4"/><stop offset="0.760417" stop-color="#8353B2"/><stop offset="0.770833" stop-color="#8152B1"/><stop offset="0.78125" stop-color="#8051AF"/><stop offset="0.791667" stop-color="#7F50AE"/><stop offset="0.802083" stop-color="#7D4FAC"/><stop offset="0.8125" stop-color="#7C4EAB"/><stop offset="0.822917" stop-color="#7B4DA9"/><stop offset="0.833333" stop-color="#794BA8"/><stop offset="0.84375" stop-color="#784AA6"/><stop offset="0.854167" stop-color="#7649A4"/><stop offset="0.864583" stop-color="#7548A3"/><stop offset="0.875" stop-color="#7347A1"/><stop offset="0.885417" stop-color="#72469F"/><stop offset="0.895833" stop-color="#70449E"/><stop offset="0.90625" stop-color="#6F439C"/><stop offset="0.916667" stop-color="#6D429A"/><stop offset="0.927083" stop-color="#6C4198"/><stop offset="0.9375" stop-color="#6A3F97"/><stop offset="0.947917" stop-color="#693E95"/><stop offset="0.958333" stop-color="#673D93"/><stop offset="0.96875" stop-color="#653B91"/><stop offset="0.979167" stop-color="#643A8F"/><stop offset="0.989583" stop-color="#62398D"/><stop offset="1" stop-color="#61388C"/></linearGradient><linearGradient x1="2439.57" y1="660.924" x2="3924.43" y2="660.924" gradientUnits="userSpaceOnUse" spreadMethod="reflect" id="fill4"><stop offset="0" stop-color="#B67DED"/><stop offset="0.0104167" stop-color="#B57CEC"/><stop offset="0.0208333" stop-color="#B57CEC"/><stop offset="0.03125" stop-color="#B57CEC"/><stop offset="0.0416667" stop-color="#B57CEC"/><stop offset="0.0520833" stop-color="#B57CEC"/><stop offset="0.0625" stop-color="#B57CEC"/><stop offset="0.0729167" stop-color="#B57CEC"/><stop offset="0.0833333" stop-color="#B57CEC"/><stop offset="0.09375" stop-color="#B47CEB"/><stop offset="0.104167" stop-color="#B47CEB"/><stop offset="0.114583" stop-color="#B47BEB"/><stop offset="0.125" stop-color="#B47BEB"/><stop offset="0.135417" stop-color="#B37BEA"/><stop offset="0.145833" stop-color="#B37BEA"/><stop offset="0.15625" stop-color="#B37AEA"/><stop offset="0.166667" stop-color="#B37AE9"/><stop offset="0.177083" stop-color="#B27AE9"/><stop offset="0.1875" stop-color="#B27AE8"/><stop offset="0.197917" stop-color="#B179E8"/><stop offset="0.208333" stop-color="#B179E7"/><stop offset="0.21875" stop-color="#B179E7"/><stop offset="0.229167" stop-color="#B078E6"/><stop offset="0.239583" stop-color="#B078E6"/><stop offset="0.25" stop-color="#AF77E5"/><stop offset="0.260417" stop-color="#AF77E5"/><stop offset="0.270833" stop-color="#AE77E4"/><stop offset="0.28125" stop-color="#AE76E4"/><stop offset="0.291667" stop-color="#AD76E3"/><stop offset="0.302083" stop-color="#AC75E2"/><stop offset="0.3125" stop-color="#AC75E2"/><stop offset="0.322917" stop-color="#AB74E1"/><stop offset="0.333333" stop-color="#AB74E0"/><stop offset="0.34375" stop-color="#AA73DF"/><stop offset="0.354167" stop-color="#A973DF"/><stop offset="0.364583" stop-color="#A972DE"/><stop offset="0.375" stop-color="#A872DD"/><stop offset="0.385417" stop-color="#A771DC"/><stop offset="0.395833" stop-color="#A770DB"/><stop offset="0.40625" stop-color="#A670DB"/><stop offset="0.416667" stop-color="#A56FDA"/><stop offset="0.427083" stop-color="#A46FD9"/><stop offset="0.4375" stop-color="#A36ED8"/><stop offset="0.447917" stop-color="#A36DD7"/><stop offset="0.458333" stop-color="#A26DD6"/><stop offset="0.46875" stop-color="#A16CD5"/><stop offset="0.479167" stop-color="#A06BD4"/><stop offset="0.489583" stop-color="#9F6AD3"/><stop offset="0.5" stop-color="#9E6AD2"/><stop offset="0.510417" stop-color="#9D69D1"/><stop offset="0.520833" stop-color="#9C68D0"/><stop offset="0.53125" stop-color="#9C67CF"/><stop offset="0.541667" stop-color="#9B67CE"/><stop offset="0.552083" stop-color="#9A66CD"/><stop offset="0.5625" stop-color="#9965CC"/><stop offset="0.572917" stop-color="#9864CA"/><stop offset="0.583333" stop-color="#9763C9"/><stop offset="0.59375" stop-color="#9663C8"/><stop offset="0.604167" stop-color="#9462C7"/><stop offset="0.614583" stop-color="#9361C6"/><stop offset="0.625" stop-color="#9260C4"/><stop offset="0.635417" stop-color="#915FC3"/><stop offset="0.645833" stop-color="#905EC2"/><stop offset="0.65625" stop-color="#8F5DC0"/><stop offset="0.666667" stop-color="#8E5CBF"/><stop offset="0.677083" stop-color="#8D5BBE"/><stop offset="0.6875" stop-color="#8B5ABC"/><stop offset="0.697917" stop-color="#8A59BB"/><stop offset="0.708333" stop-color="#8958BA"/><stop offset="0.71875" stop-color="#8857B8"/><stop offset="0.729167" stop-color="#8656B7"/><stop offset="0.739583" stop-color="#8555B5"/><stop offset="0.75" stop-color="#8454B4"/><stop offset="0.760417" stop-color="#8353B2"/><stop offset="0.770833" stop-color="#8152B1"/><stop offset="0.78125" stop-color="#8051AF"/><stop offset="0.791667" stop-color="#7F50AE"/><stop offset="0.802083" stop-color="#7D4FAC"/><stop offset="0.8125" stop-color="#7C4EAB"/><stop offset="0.822917" stop-color="#7B4DA9"/><stop offset="0.833333" stop-color="#794BA8"/><stop offset="0.84375" stop-color="#784AA6"/><stop offset="0.854167" stop-color="#7649A4"/><stop offset="0.864583" stop-color="#7548A3"/><stop offset="0.875" stop-color="#7347A1"/><stop offset="0.885417" stop-color="#72469F"/><stop offset="0.895833" stop-color="#70449E"/><stop offset="0.90625" stop-color="#6F439C"/><stop offset="0.916667" stop-color="#6D429A"/><stop offset="0.927083" stop-color="#6C4198"/><stop offset="0.9375" stop-color="#6A3F97"/><stop offset="0.947917" stop-color="#693E95"/><stop offset="0.958333" stop-color="#673D93"/><stop offset="0.96875" stop-color="#653B91"/><stop offset="0.979167" stop-color="#643A8F"/><stop offset="0.989583" stop-color="#62398D"/><stop offset="1" stop-color="#61388C"/></linearGradient></defs><g transform="translate(-2432 -540)"><path d="M2687.14 654.999C2682.87 654.999 2679.53 656.117 2677.13 658.352 2674.73 660.588 2673.07 663.465 2672.15 666.983 2671.23 670.501 2670.77 674.199 2670.77 678.079 2670.77 681.827 2671.23 685.394 2672.15 688.781 2673.07 692.167 2674.73 694.929 2677.13 697.066 2679.53 699.203 2682.87 700.271 2687.14 700.271 2691.35 700.271 2694.59 699.203 2696.86 697.066 2699.13 694.929 2700.71 692.167 2701.59 688.781 2702.48 685.394 2702.93 681.827 2702.93 678.079 2702.93 674.199 2702.48 670.501 2701.59 666.983 2700.71 663.465 2699.13 660.588 2696.86 658.352 2694.59 656.117 2691.35 654.999 2687.14 654.999ZM2952.57 654.802C2948.36 654.802 2944.87 656.741 2942.11 660.621 2939.35 664.5 2937.97 670.386 2937.97 678.276 2937.97 686.364 2939.32 692.118 2942.01 695.537 2944.71 698.956 2948.23 700.666 2952.57 700.666 2957.04 700.666 2960.69 699.269 2963.51 696.474 2966.34 693.679 2968.22 690.967 2969.14 688.337L2969.14 666.342C2967.89 663.711 2965.83 661.131 2962.97 658.599 2960.11 656.067 2956.64 654.802 2952.57 654.802ZM2821.32 627.974 2823.09 627.974 2823.09 657.662 2820.73 657.662C2817.77 657.662 2814.56 657.892 2811.11 658.352 2807.66 658.813 2804.34 659.766 2801.15 661.213 2797.96 662.659 2795.31 664.895 2793.21 667.92L2793.21 725.916 2756.52 725.916 2756.52 629.354 2792.22 629.354 2792.62 646.319C2794.85 639.744 2798.55 635.042 2803.71 632.215 2808.88 629.387 2814.74 627.974 2821.32 627.974ZM2687.14 627.382C2697.2 627.382 2706.2 629.321 2714.12 633.201 2722.04 637.081 2728.29 642.785 2732.86 650.314 2737.43 657.843 2739.72 667.098 2739.72 678.079 2739.72 688.863 2737.43 697.97 2732.86 705.4 2728.29 712.831 2722.04 718.436 2714.12 722.217 2706.2 725.998 2697.2 727.888 2687.14 727.888 2676.95 727.888 2667.86 725.998 2659.87 722.217 2651.88 718.436 2645.62 712.831 2641.08 705.4 2636.55 697.97 2634.28 688.863 2634.28 678.079 2634.28 667.098 2636.55 657.843 2641.08 650.314 2645.62 642.785 2651.88 637.081 2659.87 633.201 2667.86 629.321 2676.95 627.382 2687.14 627.382ZM2969.14 593.156 3005.83 593.156 3005.83 725.916 2970.32 725.916 2968.94 712.6C2965.52 717.335 2961.59 721.001 2957.15 723.598 2952.71 726.195 2947.08 727.494 2940.24 727.494 2932.15 727.494 2925.2 725.702 2919.38 722.119 2913.56 718.535 2909.09 713.061 2905.96 705.696 2902.84 698.332 2901.28 688.994 2901.28 677.684 2901.28 666.506 2902.97 657.218 2906.36 649.821 2909.74 642.423 2914.51 636.9 2920.66 633.25 2926.81 629.601 2933.99 627.776 2942.21 627.776 2949.11 627.776 2954.72 629.091 2959.03 631.722 2963.33 634.352 2966.7 637.541 2969.14 641.289ZM2837.91 593.156 2874.41 593.156 2874.41 687.35C2874.41 691.362 2875.03 694.107 2876.28 695.586 2877.53 697.066 2880.23 697.805 2884.37 697.805L2892.06 697.805 2892.06 725.916 2883.97 725.916C2872.07 725.916 2862.77 724.831 2856.06 722.661 2849.35 720.491 2844.65 716.776 2841.96 711.515 2839.26 706.255 2837.91 698.989 2837.91 689.718ZM2438.58 593.156 2478.33 593.156 2498.35 678.868 2519.36 593.156 2556.15 593.156 2576.97 678.868 2596.89 593.156 2636.93 593.156 2596.3 725.916 2556.15 725.916 2537.31 641.289 2518.77 725.916 2478.53 725.916Z" fill="url(#fill0)" fill-rule="evenodd"/><text fill="#000000" fill-opacity="0" font-family="Arial,Arial_MSFontService,sans-serif" font-size="134.732" x="2438.58" y="711.047">World</text><path d="M3024.74 660.226 3085.3 660.226 3085.3 690.803 3024.74 690.803Z" fill="url(#fill1)" fill-rule="evenodd"/><text fill="#000000" fill-opacity="0" font-family="Arial,Arial_MSFontService,sans-serif" font-size="30.5762" x="3024.74" y="686.981">-</text><path d="M3237.42 627.974C3246.89 627.974 3254.54 630.768 3260.36 636.357 3266.18 641.946 3269.08 650.659 3269.08 662.495L3269.08 725.916 3232.39 725.916 3232.39 666.933C3232.39 664.698 3232.02 662.824 3231.26 661.311 3230.5 659.799 3229.4 658.648 3227.96 657.859 3226.51 657.07 3224.73 656.676 3222.63 656.676 3219.6 656.676 3216.69 657.448 3213.9 658.994 3211.11 660.539 3208.43 662.857 3205.86 665.947L3205.86 725.916 3169.17 725.916 3169.17 629.354 3204.68 629.354 3205.07 643.262C3208.56 638.922 3212.78 635.289 3217.75 632.363 3222.71 629.437 3229.27 627.974 3237.42 627.974ZM3106.34 593.156 3145.1 593.156 3145.1 725.916 3106.34 725.916Z" fill="url(#fill2)" fill-rule="evenodd"/><text fill="#000000" fill-opacity="0" font-family="Arial,Arial_MSFontService,sans-serif" font-size="132.76" x="3106.34" y="709.321">In</text><path d="M3287.13 660.226 3347.69 660.226 3347.69 690.803 3287.13 690.803Z" fill="url(#fill3)" fill-rule="evenodd"/><text fill="#000000" fill-opacity="0" font-family="Arial,Arial_MSFontService,sans-serif" font-size="30.5762" x="3287.13" y="686.981">-</text><path d="M3595.12 654.999C3590.85 654.999 3587.51 656.117 3585.11 658.352 3582.71 660.588 3581.05 663.465 3580.13 666.983 3579.21 670.501 3578.75 674.199 3578.75 678.079 3578.75 681.827 3579.21 685.394 3580.13 688.781 3581.05 692.167 3582.71 694.929 3585.11 697.066 3587.51 699.203 3590.85 700.271 3595.12 700.271 3599.33 700.271 3602.57 699.203 3604.84 697.066 3607.11 694.929 3608.69 692.167 3609.57 688.781 3610.46 685.394 3610.91 681.827 3610.91 678.079 3610.91 674.199 3610.46 670.501 3609.57 666.983 3608.69 663.465 3607.11 660.588 3604.84 658.352 3602.57 656.117 3599.33 654.999 3595.12 654.999ZM3860.55 654.802C3856.34 654.802 3852.85 656.741 3850.09 660.621 3847.33 664.5 3845.95 670.386 3845.95 678.276 3845.95 686.364 3847.3 692.118 3849.99 695.537 3852.69 698.956 3856.21 700.666 3860.55 700.666 3865.02 700.666 3868.67 699.269 3871.5 696.474 3874.32 693.679 3876.2 690.967 3877.12 688.337L3877.12 666.342C3875.87 663.711 3873.81 661.131 3870.95 658.599 3868.09 656.067 3864.62 654.802 3860.55 654.802ZM3729.3 627.974 3731.08 627.974 3731.08 657.662 3728.71 657.662C3725.75 657.662 3722.54 657.892 3719.09 658.352 3715.64 658.813 3712.32 659.766 3709.13 661.213 3705.94 662.659 3703.29 664.895 3701.19 667.92L3701.19 725.916 3664.5 725.916 3664.5 629.354 3700.2 629.354 3700.6 646.319C3702.83 639.744 3706.53 635.042 3711.69 632.215 3716.86 629.387 3722.73 627.974 3729.3 627.974ZM3595.12 627.382C3605.19 627.382 3614.18 629.321 3622.1 633.201 3630.02 637.081 3636.27 642.785 3640.84 650.314 3645.41 657.843 3647.7 667.098 3647.7 678.079 3647.7 688.863 3645.41 697.97 3640.84 705.4 3636.27 712.831 3630.02 718.436 3622.1 722.217 3614.18 725.998 3605.19 727.888 3595.12 727.888 3584.93 727.888 3575.84 725.998 3567.85 722.217 3559.86 718.436 3553.6 712.831 3549.06 705.4 3544.53 697.97 3542.26 688.863 3542.26 678.079 3542.26 667.098 3544.53 657.843 3549.06 650.314 3553.6 642.785 3559.86 637.081 3567.85 633.201 3575.84 629.321 3584.93 627.382 3595.12 627.382ZM3877.12 593.156 3913.81 593.156 3913.81 725.916 3878.3 725.916 3876.92 712.6C3873.5 717.335 3869.57 721.001 3865.13 723.598 3860.69 726.195 3855.06 727.494 3848.22 727.494 3840.13 727.494 3833.18 725.702 3827.36 722.119 3821.54 718.535 3817.07 713.061 3813.94 705.696 3810.82 698.332 3809.26 688.994 3809.26 677.684 3809.26 666.506 3810.95 657.218 3814.34 649.821 3817.72 642.423 3822.49 636.9 3828.64 633.25 3834.79 629.601 3841.97 627.776 3850.19 627.776 3857.09 627.776 3862.7 629.091 3867.01 631.722 3871.31 634.352 3874.68 637.541 3877.12 641.289ZM3745.89 593.156 3782.39 593.156 3782.39 687.35C3782.39 691.362 3783.01 694.107 3784.26 695.586 3785.51 697.066 3788.21 697.805 3792.35 697.805L3800.04 697.805 3800.04 725.916 3791.96 725.916C3780.05 725.916 3770.75 724.831 3764.04 722.661 3757.33 720.491 3752.63 716.776 3749.94 711.515 3747.24 706.255 3745.89 698.989 3745.89 689.718ZM3346.56 593.156 3386.31 593.156 3406.34 678.868 3427.34 593.156 3464.13 593.156 3484.95 678.868 3504.87 593.156 3544.92 593.156 3504.28 725.916 3464.13 725.916 3445.3 641.289 3426.75 725.916 3386.51 725.916Z" fill="url(#fill4)" fill-rule="evenodd"/><text fill="#000000" fill-opacity="0" font-family="Arial,Arial_MSFontService,sans-serif" font-size="134.732" x="3346.56" y="711.047">World</text></g></svg>